<svg width="44" height="87" viewBox="0 0 44 87" fill="none" xmlns="http://www.w3.org/2000/svg">
    <path fill-rule="evenodd" clip-rule="evenodd" fill="black"
        d="M2 43.0957C2 53.2437 10.828 61.6915 22 61.6915C33.172 61.6915 42 53.2437 42 43.0957C42 32.9478 33.172 24.5 22 24.5C10.828 24.5 2 32.9478 2 43.0957ZM-1.88378e-06 43.0957C-2.37414e-06 54.314 9.58066 63.4374 21.5 63.6863L21.5 86.3437L22.5 86.3437L22.5 63.6863C34.4193 63.4374 44 54.314 44 43.0957C44 31.8775 34.4193 22.754 22.5 22.5052L22.5 -9.39795e-07L21.5 -9.83506e-07L21.5 22.5052C9.58066 22.754 -1.39341e-06 31.8775 -1.88378e-06 43.0957ZM17 29.5L21.5 29.5L21.5 25L22.5 25L22.5 29.5L27 29.5L27 30.5L22.5 30.5L22.5 35L21.5 35L21.5 30.5L17 30.5L17 29.5ZM17 57.5L17 56.5L27 56.5L27 57.5L17 57.5ZM13 45.7031C13.5 45.7031 13.5 45.7032 13.5 45.7033L13.5 45.7032L13.5 45.7015L13.5001 45.6933L13.5005 45.6578C13.5009 45.6261 13.5019 45.5784 13.5039 45.5172C13.5079 45.3946 13.5158 45.2181 13.5318 45.0059C13.564 44.5792 13.6279 44.0176 13.7536 43.4619C13.8811 42.8985 14.0634 42.381 14.3113 42.0156C14.5519 41.661 14.8146 41.5 15.1276 41.5C15.3861 41.5 15.5755 41.5885 15.7397 41.7551C15.9183 41.9364 16.0787 42.2241 16.2166 42.6304C16.4947 43.4501 16.6233 44.565 16.7584 45.7593L16.7629 45.7993C16.8925 46.9451 17.0303 48.1641 17.3469 49.0972C17.5082 49.5727 17.7302 50.0199 18.0585 50.353C18.4013 50.7009 18.8435 50.9062 19.3828 50.9062C19.9221 50.9062 20.3644 50.7009 20.7071 50.353C21.0354 50.0199 21.2574 49.5727 21.4187 49.0972C21.7353 48.1641 21.8731 46.9451 22.0027 45.7994L22.0072 45.7593C22.1423 44.565 22.2709 43.4501 22.549 42.6304C22.6869 42.2241 22.8473 41.9364 23.0259 41.7551C23.1901 41.5885 23.3795 41.5 23.638 41.5C23.8966 41.5 24.0859 41.5885 24.2501 41.7551C24.4288 41.9364 24.5891 42.2241 24.727 42.6304C25.0051 43.4501 25.1337 44.565 25.2688 45.7593L25.2733 45.7993C25.4028 46.945 25.5407 48.1641 25.8572 49.0972C26.0186 49.5727 26.2405 50.0199 26.5689 50.353C26.9117 50.7009 27.3539 50.9062 27.8932 50.9062C28.699 50.9062 29.2299 50.3391 29.5627 49.7262C29.8998 49.1053 30.1107 48.3087 30.2469 47.5558C30.3846 46.7947 30.4528 46.0385 30.4867 45.476C30.5037 45.1939 30.5122 44.9584 30.5165 44.7929C30.5187 44.71 30.5197 44.6446 30.5203 44.5994L30.5208 44.5471L30.5208 44.533L30.5208 44.5291L30.5208 44.528L30.5208 44.5276C30.5208 44.5275 30.5208 44.5273 30.0208 44.5273C29.5208 44.5273 29.5208 44.5273 29.5208 44.5273L29.5208 44.5277L29.5208 44.5302L29.5208 44.5413L29.5204 44.5873C29.5199 44.6283 29.5189 44.6891 29.5168 44.767C29.5128 44.923 29.5047 45.1468 29.4885 45.4158C29.4559 45.9556 29.3911 46.6692 29.2629 47.3778C29.1332 48.0946 28.9451 48.7678 28.6838 49.2491C28.4182 49.7385 28.1513 49.9062 27.8932 49.9062C27.6347 49.9062 27.4453 49.8177 27.2811 49.6511C27.1024 49.4698 26.9421 49.1822 26.8042 48.7759C26.5261 47.9562 26.3975 46.8412 26.2624 45.6469L26.2579 45.6069C26.1284 44.4612 25.9905 43.2421 25.674 42.3091C25.5126 41.8336 25.2907 41.3863 24.9624 41.0532C24.6196 40.7054 24.1773 40.5 23.638 40.5C23.0987 40.5 22.6565 40.7054 22.3137 41.0532C21.9854 41.3863 21.7634 41.8336 21.6021 42.3091C21.2855 43.2422 21.1476 44.4612 21.0181 45.607L21.0136 45.6469C20.8785 46.8412 20.7499 47.9562 20.4717 48.7759C20.3339 49.1822 20.1735 49.4698 19.9949 49.6511C19.8307 49.8177 19.6413 49.9062 19.3828 49.9062C19.1243 49.9062 18.9349 49.8177 18.7707 49.6511C18.5921 49.4698 18.4317 49.1822 18.2939 48.7759C18.0157 47.9561 17.8871 46.8412 17.752 45.6469L17.7475 45.6069C17.618 44.4612 17.4801 43.2421 17.1635 42.3091C17.0022 41.8336 16.7802 41.3863 16.4519 41.0532C16.1092 40.7054 15.6669 40.5 15.1276 40.5C14.3768 40.5 13.8416 40.9269 13.4838 41.4541C13.1334 41.9706 12.9168 42.6289 12.7783 43.2413C12.638 43.8613 12.569 44.4755 12.5347 44.9307C12.5174 45.1593 12.5088 45.3503 12.5044 45.4849C12.5022 45.5523 12.5011 45.6057 12.5006 45.6428L12.5001 45.686L12.5 45.6979L12.5 45.7014L12.5 45.7025L12.5 45.7028C12.5 45.703 12.5 45.7031 13 45.7031Z" />
</svg>