<svg width="64" height="41" viewBox="0 0 64 41" fill="none" xmlns="http://www.w3.org/2000/svg">
    <path fill-rule="evenodd" clip-rule="evenodd" d="M45.4426 1.56476L51 0L49.5764 5.59524L47.8675 3.92905L43.2708 8.64358C46.0814 11.4331 47.8621 15.2588 47.9923 19.5H64V20.5H47.9923C47.7282 29.1052 40.6693 36 32 36C27.7056 36 23.8064 34.3082 20.9325 31.5547L12.358 40.349L11.642 39.651L20.2321 30.8406C17.7098 28.104 16.13 24.4854 16.0077 20.5H0V19.5H16.0077C16.2718 10.8948 23.3307 4 32 4C36.0367 4 39.7243 5.49492 42.5394 7.96136L47.1515 3.23095L45.4426 1.56476ZM32 6C35.4935 6 38.6882 7.27961 41.1409 9.3957L34.0924 16.6249L33.1875 14H30.017L26.3803 24.5348L21.6306 29.4063C19.3747 26.9208 18 23.621 18 20C18 12.268 24.268 6 32 6ZM26.7029 25.6364L22.3288 30.1226C24.8422 32.5247 28.2488 34 32 34C39.732 34 46 27.732 46 20C46 16.1213 44.4227 12.6111 41.8746 10.0756L34.4572 17.6832L37.1989 25.6364H34.5625L33.701 22.983H29.4996L28.6364 25.6364H26.7029ZM31.1624 21.0625H33.0774L32.599 19.589L31.1624 21.0625ZM32.2501 18.5144L31.6477 16.6591H31.5568L30.3039 20.5106L32.2501 18.5144Z" fill="black"/>
</svg>
