<svg width="44" height="87" viewBox="0 0 44 87" fill="none" xmlns="http://www.w3.org/2000/svg">
    <path fill-rule="evenodd" clip-rule="evenodd" fill="black"
        d="M22 61.6915C10.828 61.6915 2 53.2437 2 43.0957C2 32.9478 10.828 24.5 22 24.5C33.172 24.5 42 32.9478 42 43.0957C42 53.2437 33.172 61.6915 22 61.6915ZM21.5 63.6863C9.58066 63.4374 -2.37414e-06 54.314 -1.88378e-06 43.0957C-1.39341e-06 31.8775 9.58066 22.754 21.5 22.5052L21.5 -9.83506e-07L22.5 -9.39795e-07L22.5 22.5052C34.4193 22.754 44 31.8775 44 43.0957C44 54.314 34.4193 63.4374 22.5 63.6863L22.5 86.3437L21.5 86.3437L21.5 63.6863ZM21.5 33.5L17 33.5L17 34.5L21.5 34.5L21.5 39L22.5 39L22.5 34.5L27 34.5L27 33.5L22.5 33.5L22.5 29L21.5 29L21.5 33.5ZM17 55.5L17 56.5L27 56.5L27 55.5L17 55.5Z" />
</svg>