<svg width="64" height="9" viewBox="0 0 64 9" fill="none" xmlns="http://www.w3.org/2000/svg">
    <path fill-rule="evenodd" clip-rule="evenodd" d="M32 8.5C33 8.5 33 8.50036 33 8.5007V8.49913L33.0001 8.49139C33.0002 8.48499 33.0003 8.47571 33.0006 8.46367C33.0007 8.45734 33.0009 8.45026 33.0011 8.44243C33.0023 8.39693 33.0049 8.32652 33.0101 8.23478C33.0206 8.051 33.0419 7.78338 33.085 7.46029C33.1718 6.8089 33.3438 5.95808 33.6785 5.12139C34.014 4.28253 34.4944 3.50429 35.1714 2.94009C35.8308 2.39065 36.7277 2 38 2C39.2723 2 40.1692 2.39065 40.8286 2.94009C41.5056 3.50429 41.986 4.28253 42.3215 5.12139C42.6562 5.95808 42.8282 6.80889 42.915 7.46028C42.9581 7.78338 42.9794 8.051 42.9899 8.23478C42.9952 8.32652 42.9977 8.39693 42.9989 8.44242C42.9995 8.46516 42.9998 8.48163 42.9999 8.49138L43 8.49809V8.49913V8.50069C43 8.50036 43 8.5 44 8.5C45 8.5 45 8.50036 45 8.50069V8.49913V8.49809L45.0001 8.49138C45.0002 8.48163 45.0005 8.46516 45.0011 8.44242C45.0023 8.39693 45.0048 8.32652 45.0101 8.23478C45.0206 8.051 45.0419 7.78338 45.085 7.46028C45.1718 6.80889 45.3438 5.95808 45.6785 5.12139C46.014 4.28253 46.4944 3.50429 47.1714 2.94009C47.8308 2.39065 48.7277 2 50 2C51.2723 2 52.1692 2.39065 52.8286 2.94009C53.5056 3.50429 53.986 4.28253 54.3215 5.12139C54.6562 5.95808 54.8282 6.80889 54.915 7.46028C54.9581 7.78338 54.9794 8.051 54.9899 8.23478C54.9952 8.32652 54.9977 8.39693 54.9989 8.44242C54.9995 8.46516 54.9998 8.48163 54.9999 8.49138L55 8.49997V8.50069C55 8.50036 55 8.5 56 8.5C56.1378 8.5 56.2566 8.49999 56.3591 8.49997H64V7.49997H56.9344C56.9239 7.40391 56.9117 7.30235 56.8975 7.19596C56.7968 6.4411 56.5938 5.41692 56.1785 4.37861C55.764 3.34246 55.1194 2.2457 54.1089 1.40365C53.0808 0.546842 51.7277 -3.8147e-06 50 -3.8147e-06C48.2723 -3.8147e-06 46.9192 0.546842 45.8911 1.40365C45.0154 2.13337 44.4145 3.05438 44 3.96145C43.5855 3.05438 42.9846 2.13337 42.1089 1.40365C41.0808 0.546842 39.7277 -3.8147e-06 38 -3.8147e-06C36.2723 -3.8147e-06 34.9192 0.546842 33.8911 1.40365C33.0154 2.13337 32.4145 3.05438 32 3.96146C31.5855 3.05438 30.9846 2.13337 30.1089 1.40365C29.0808 0.546845 27.7277 0 26 0C24.2723 0 22.9192 0.546846 21.8911 1.40365C21.0154 2.13338 20.4145 3.05438 20 3.96146C19.5855 3.05438 18.9846 2.13338 18.1089 1.40365C17.0808 0.546846 15.7277 0 14 0C12.2723 0 10.9192 0.546846 9.89106 1.40365C8.8806 2.2457 8.23598 3.34247 7.82152 4.37861C7.4062 5.41692 7.20317 6.44111 7.10252 7.19596C7.08833 7.30237 7.07611 7.40393 7.06559 7.5H0V8.5H7.84249C7.89202 8.5 7.94447 8.5 8 8.5C9 8.5 9 8.50037 9 8.5007L9 8.50123L9 8.50092L9.0001 8.49139C9.00023 8.48164 9.0005 8.46517 9.00111 8.44243C9.00232 8.39694 9.00485 8.32653 9.01009 8.23479C9.02059 8.051 9.0419 7.78339 9.08498 7.46029C9.17183 6.8089 9.3438 5.95808 9.67848 5.12139C10.014 4.28253 10.4944 3.5043 11.1714 2.9401C11.8308 2.39065 12.7277 2 14 2C15.2723 2 16.1692 2.39065 16.8286 2.9401C17.5056 3.5043 17.986 4.28253 18.3215 5.12139C18.6562 5.95808 18.8282 6.8089 18.915 7.46029C18.9581 7.78339 18.9794 8.051 18.9899 8.23479C18.9952 8.32653 18.9977 8.39694 18.9989 8.44243C18.9995 8.46517 18.9998 8.48164 18.9999 8.49139L19 8.5007L19 8.50092L19 8.50123V8.5007C19 8.50037 19 8.5 20 8.5C21 8.5 21 8.50037 21 8.5007L21.0001 8.49139C21.0002 8.48164 21.0005 8.46517 21.0011 8.44243C21.0023 8.39694 21.0048 8.32653 21.0101 8.23479C21.0206 8.051 21.0419 7.78339 21.085 7.46029C21.1718 6.8089 21.3438 5.95808 21.6785 5.12139C22.014 4.28253 22.4944 3.5043 23.1714 2.9401C23.8308 2.39065 24.7277 2 26 2C27.2723 2 28.1692 2.39065 28.8286 2.9401C29.5056 3.5043 29.986 4.28253 30.3215 5.12139C30.6562 5.95808 30.8282 6.8089 30.915 7.46029C30.9581 7.78338 30.9794 8.051 30.9899 8.23479C30.9952 8.32653 30.9977 8.39694 30.9989 8.44243C30.9995 8.46516 30.9998 8.48163 30.9999 8.49139L31 8.49913V8.5007C31 8.50036 31 8.5 32 8.5Z" fill="black"/>
</svg>
