<svg width="64" height="22" viewBox="0 0 64 22" fill="none" xmlns="http://www.w3.org/2000/svg">
    <path fill-rule="evenodd" clip-rule="evenodd" d="M57.3681 10.5H55.1321L52.0002 16.7639L44.8946 2.55277L44.0002 0.763916L43.1058 2.55277L36.0002 16.7639L28.8946 2.55277L28.0002 0.763916L27.1058 2.55277L20.0002 16.7639L12.8946 2.55277L12.0002 0.76393L11.1058 2.55277L7.13208 10.5H0V11.5H8V11.5H8.86815L12.0002 5.23604L19.1058 19.4472L20.0002 21.2361L20.8946 19.4472L28.0002 5.23605L35.1058 19.4472L36.0002 21.2361L36.8946 19.4472L44.0002 5.23605L51.1058 19.4472L52.0002 21.2361L52.8946 19.4472L56.8681 11.5H64V10.5L57.3681 10.5Z" fill="black"/>
</svg>
