<svg width="64" height="5" viewBox="0 0 64 5" fill="none" xmlns="http://www.w3.org/2000/svg">
    <path fill-rule="evenodd" clip-rule="evenodd"
          d="M17 3.73244C17.5978 3.38663 18 2.74028 18 2C18 1.63571 17.9026 1.29417 17.7324 1H46.2676C46.0974 1.29417 46 1.63571 46 2C46 2.74028 46.4022 3.38663 47 3.73244V4.5H64V3.5H49.3229C49.7381 3.13353 50 2.59735 50 2C50 0.895431 49.1046 0 48 0H16C14.8954 0 14 0.895431 14 2C14 2.59735 14.2619 3.13353 14.6771 3.5H0V4.5H17V3.73244Z"
          fill="black"/>
</svg>
