<svg width="64" height="18" viewBox="0 0 64 18" fill="none" xmlns="http://www.w3.org/2000/svg">
    <path fill-rule="evenodd" clip-rule="evenodd"
          d="M17.3062 13.4854L49 0.999989L48.6335 0.0695801L15.7797 13.012C14.7788 13.1217 14 13.9699 14 15C14 15.5973 14.2619 16.1335 14.6771 16.5H0V17.5H17V16.7324C17.5978 16.3866 18 15.7403 18 15C18 14.3947 17.7311 13.8522 17.3062 13.4854ZM46 15C46 15.7403 46.4022 16.3866 47 16.7324V17.5H64V16.5H49.3229C49.7381 16.1335 50 15.5973 50 15C50 13.8954 49.1046 13 48 13C46.8954 13 46 13.8954 46 15Z"
          fill="black"/>
</svg>
