<svg width="64" height="41" viewBox="0 0 64 41" fill="none" xmlns="http://www.w3.org/2000/svg">
    <path fill-rule="evenodd" clip-rule="evenodd"
          d="M46.4426 1.56476L52 0L50.5764 5.59524L48.8675 3.92905L43.7679 9.15939C46.2902 11.896 47.87 15.5146 47.9923 19.5H64V20.5H47.9923C47.7282 29.1052 40.6693 36 32 36C27.9633 36 24.2757 34.5051 21.4606 32.0386L13.358 40.349L12.642 39.651L20.7292 31.3564C17.9186 28.5669 16.1379 24.7412 16.0077 20.5H0V19.5H16.0077C16.2718 10.8948 23.3307 4 32 4C36.2944 4 40.1936 5.69182 43.0675 8.4453L48.1515 3.23095L46.4426 1.56476ZM32 6C35.7512 6 39.1578 7.47532 41.6712 9.87737L36.9512 14.7184L37.1989 14H34.4716L32.9269 18.846L30.9271 20.897L28.733 14H26L29.0467 22.8256L22.1254 29.9244C19.5773 27.3889 18 23.8787 18 20C18 12.268 24.268 6 32 6ZM29.4119 23.8835L22.8591 30.6043C25.3118 32.7204 28.5065 34 32 34C39.732 34 46 27.732 46 20C46 16.379 44.6253 13.0792 42.3694 10.5937L36.1873 16.9344L33.1875 25.6364H30.017L29.4119 23.8835ZM32.2484 20.9742L31.2707 21.9771L31.5455 22.8409H31.6534L32.2484 20.9742Z"/>
</svg>
